<mxfile host="app.diagrams.net" modified="2023-11-11T02:04:15.348Z" agent="Mozilla/5.0 (X11; Linux x86_64) AppleWebKit/537.36 (KHTML, like Gecko) Chrome/114.0.0.0 Safari/537.36" etag="3GWhTH4WL-GqRPkaJ0Wu" version="22.1.0" type="github">
  <diagram name="Page-1" id="a6i6F0altm2IYjbj3iWz">
    <mxGraphModel dx="880" dy="462" grid="1" gridSize="10" guides="1" tooltips="1" connect="1" arrows="1" fold="1" page="1" pageScale="1" pageWidth="827" pageHeight="1169" math="0" shadow="0">
      <root>
        <mxCell id="0" />
        <mxCell id="1" parent="0" />
        <mxCell id="pOMxqucZRWbTER7i5tgz-1" value="" style="whiteSpace=wrap;html=1;fillColor=#59C2FF;gradientColor=none;strokeColor=default;fontStyle=0" vertex="1" parent="1">
          <mxGeometry x="200" width="1070" height="870" as="geometry" />
        </mxCell>
        <mxCell id="pOMxqucZRWbTER7i5tgz-4" value="" style="whiteSpace=wrap;html=1;aspect=fixed;fillColor=#6666FF;" vertex="1" parent="1">
          <mxGeometry x="220" y="30" width="440" height="440" as="geometry" />
        </mxCell>
        <mxCell id="pOMxqucZRWbTER7i5tgz-5" value="" style="whiteSpace=wrap;html=1;" vertex="1" parent="1">
          <mxGeometry x="340" y="60" width="90" height="170" as="geometry" />
        </mxCell>
        <mxCell id="pOMxqucZRWbTER7i5tgz-6" value="&lt;h2&gt;&lt;b&gt;&lt;font style=&quot;font-size: 12px;&quot;&gt;BACKEND&lt;/font&gt;&lt;/b&gt;&lt;/h2&gt;" style="rounded=1;whiteSpace=wrap;html=1;fillColor=#9999FF;" vertex="1" parent="1">
          <mxGeometry x="348.25" y="490" width="120" height="60" as="geometry" />
        </mxCell>
        <mxCell id="pOMxqucZRWbTER7i5tgz-8" value="" style="outlineConnect=0;dashed=0;verticalLabelPosition=bottom;verticalAlign=top;align=center;html=1;shape=mxgraph.aws3.android;fillColor=#8CC64F;gradientColor=none;" vertex="1" parent="1">
          <mxGeometry x="348.25" y="90" width="73.5" height="84" as="geometry" />
        </mxCell>
        <mxCell id="pOMxqucZRWbTER7i5tgz-9" value="NODE JS&lt;br&gt;(Nest JS)" style="rounded=0;whiteSpace=wrap;html=1;strokeColor=none;" vertex="1" parent="1">
          <mxGeometry x="340" y="174" width="90" height="46" as="geometry" />
        </mxCell>
        <mxCell id="pOMxqucZRWbTER7i5tgz-10" value="PRISMA" style="whiteSpace=wrap;html=1;" vertex="1" parent="1">
          <mxGeometry x="340" y="290" width="110" height="160" as="geometry" />
        </mxCell>
        <mxCell id="pOMxqucZRWbTER7i5tgz-12" value="WEB SERVER" style="ellipse;whiteSpace=wrap;html=1;" vertex="1" parent="1">
          <mxGeometry x="220" y="105" width="120" height="80" as="geometry" />
        </mxCell>
        <mxCell id="pOMxqucZRWbTER7i5tgz-13" value="" style="whiteSpace=wrap;html=1;" vertex="1" parent="1">
          <mxGeometry x="510" y="160" width="120" height="170" as="geometry" />
        </mxCell>
        <mxCell id="pOMxqucZRWbTER7i5tgz-16" value="DATABASE" style="rounded=0;whiteSpace=wrap;html=1;strokeColor=none;" vertex="1" parent="1">
          <mxGeometry x="510" y="280" width="120" height="50" as="geometry" />
        </mxCell>
        <mxCell id="pOMxqucZRWbTER7i5tgz-17" value="" style="verticalLabelPosition=bottom;html=1;verticalAlign=top;align=center;strokeColor=none;fillColor=#00BEF2;shape=mxgraph.azure.mysql_database;" vertex="1" parent="1">
          <mxGeometry x="535" y="200" width="70" height="90" as="geometry" />
        </mxCell>
        <mxCell id="pOMxqucZRWbTER7i5tgz-18" value="" style="whiteSpace=wrap;html=1;fillColor=#CC99FF;" vertex="1" parent="1">
          <mxGeometry x="780" y="105" width="430" height="260" as="geometry" />
        </mxCell>
        <mxCell id="pOMxqucZRWbTER7i5tgz-19" value="&lt;b&gt;FRONTEND&lt;/b&gt;" style="rounded=1;whiteSpace=wrap;html=1;fillColor=#659AEA;" vertex="1" parent="1">
          <mxGeometry x="1020" y="390" width="120" height="60" as="geometry" />
        </mxCell>
        <mxCell id="pOMxqucZRWbTER7i5tgz-21" value="" style="shape=image;html=1;verticalAlign=top;verticalLabelPosition=bottom;labelBackgroundColor=#ffffff;imageAspect=0;aspect=fixed;image=https://cdn1.iconfinder.com/data/icons/unicons-line-vol-5/24/react-128.png;imageBackground=default;" vertex="1" parent="1">
          <mxGeometry x="916" y="270" width="78" height="78" as="geometry" />
        </mxCell>
        <mxCell id="pOMxqucZRWbTER7i5tgz-25" value="" style="shape=image;html=1;verticalAlign=top;verticalLabelPosition=bottom;labelBackgroundColor=#ffffff;imageAspect=0;image=https://cdn1.iconfinder.com/data/icons/unicons-line-vol-6/24/vuejs-alt-128.png;imageBackground=default;" vertex="1" parent="1">
          <mxGeometry x="1016" y="270" width="78" height="78" as="geometry" />
        </mxCell>
        <mxCell id="pOMxqucZRWbTER7i5tgz-26" value="" style="shape=image;html=1;verticalAlign=top;verticalLabelPosition=bottom;labelBackgroundColor=#ffffff;imageAspect=0;aspect=fixed;image=https://cdn0.iconfinder.com/data/icons/long-shadow-web-icons/512/angular-symbol-128.png" vertex="1" parent="1">
          <mxGeometry x="1116" y="270" width="78" height="78" as="geometry" />
        </mxCell>
        <mxCell id="pOMxqucZRWbTER7i5tgz-35" value="" style="rounded=0;whiteSpace=wrap;html=1;fillColor=#9999FF;" vertex="1" parent="1">
          <mxGeometry x="800" y="110" width="390" height="150" as="geometry" />
        </mxCell>
      </root>
    </mxGraphModel>
  </diagram>
</mxfile>
